<svg height="50" viewBox="0 0 40 40" width="50" xmlns="http://www.w3.org/2000/svg">
    <path d="m2.5 32.563v-12.063h14v13.955z" fill="#98ccfd"/>
    <path d="m16 21v12.883l-13-1.757v-11.126zm1-1h-15v13l15 2.027z" fill="#4788c7"/>
    <path d="m18.5 34.725v-14.225h20v16.928z" fill="#98ccfd"/>
    <path d="m38 21v15.856l-19-2.568v-13.288zm1-1h-21v15.162l21 2.838z" fill="#4788c7"/>
    <path d="m2.5 18.5v-12.063l14-1.892v13.955z" fill="#98ccfd"/>
    <path d="m16 5.117v12.883h-13v-11.126zm1-1.144-15 2.027v13h15z" fill="#4788c7"/>
    <path d="m18.5 18.5v-14.225l20-2.703v16.928z" fill="#98ccfd"/>
    <path d="m38 2.144v15.856h-19v-13.288zm1-1.144-21 2.838v15.162h21z" fill="#4788c7"/>
</svg>